<?xml version="1.0" standalone="no"?>
<!DOCTYPE svg PUBLIC "-//W3C//DTD SVG 20010904//EN"
 "http://www.w3.org/TR/2001/REC-SVG-20010904/DTD/svg10.dtd">
<svg version="1.0" xmlns="http://www.w3.org/2000/svg"
 width="420.000000pt" height="420.000000pt" viewBox="0 0 420.000000 420.000000"
 preserveAspectRatio="xMidYMid meet">
<metadata>
Created by potrace 1.14, written by Peter Selinger 2001-2017
</metadata>
<g transform="translate(0.000000,420.000000) scale(0.100000,-0.100000)"
fill="#000000" stroke="none">
<path d="M0 2100 l0 -1140 2100 0 2100 0 0 1140 0 1140 -2100 0 -2100 0 0
-1140z m1287 791 c240 -59 397 -213 440 -431 9 -43 13 -85 10 -94 -6 -15 -38
-16 -293 -14 l-287 3 -14 47 c-16 55 -48 82 -99 82 -46 0 -69 -25 -69 -73 0
-70 19 -82 287 -192 95 -39 200 -85 233 -102 71 -38 174 -132 208 -190 77
-131 75 -319 -6 -471 -92 -175 -285 -279 -543 -293 -186 -10 -374 31 -511 111
-72 42 -164 138 -199 208 -26 52 -64 184 -64 225 l0 23 289 0 289 0 11 -44
c15 -60 58 -96 115 -96 51 0 82 20 91 59 15 71 -45 115 -270 196 -275 100
-407 190 -474 326 -70 143 -57 354 30 490 87 135 224 210 469 253 58 11 278
-4 357 -23z m2300 -12 c220 -30 377 -138 462 -317 39 -84 55 -183 48 -302 -12
-208 -114 -368 -293 -462 -117 -61 -159 -70 -369 -77 l-190 -6 -3 -267 -2
-268 -270 0 -270 0 0 848 c0 467 3 852 7 855 11 11 795 8 880 -4z m-1237
-1211 c105 -48 162 -133 163 -243 1 -103 -50 -181 -156 -237 -36 -20 -57 -23
-152 -23 -96 0 -116 3 -159 24 -230 114 -198 425 51 497 73 21 187 13 253 -18z"/>
<path d="M3240 2299 l0 -151 113 4 c131 4 157 16 183 84 20 52 14 115 -13 153
-35 47 -78 61 -185 61 l-98 0 0 -151z"/>
</g>
</svg>
